<?xml version="1.0" encoding="UTF-8" standalone="no" ?>
<!DOCTYPE svg PUBLIC "-//W3C//DTD SVG 1.1//EN" "http://www.w3.org/Graphics/SVG/1.1/DTD/svg11.dtd">
<svg xmlns="http://www.w3.org/2000/svg" xmlns:xlink="http://www.w3.org/1999/xlink" version="1.1" width="1280" height="1024" viewBox="0 0 1280 1024" xml:space="preserve">
<desc>Created with Fabric.js 4.4.0</desc>
<defs>
</defs>
<g transform="matrix(1 0 0 1 640 512)" id="background-logo"  >
<rect style="stroke: none; stroke-width: 0; stroke-dasharray: none; stroke-linecap: butt; stroke-dashoffset: 0; stroke-linejoin: miter; stroke-miterlimit: 4; fill: rgb(0,0,0); fill-rule: nonzero; opacity: 1;"  paint-order="stroke"  x="-640" y="-512" rx="0" ry="0" width="1280" height="1024" />
</g>
<g transform="matrix(1.9211538461538462 0 0 1.9211538461538462 640.103957899972 705.31625196351)" id="text-logo"  >
<g style=""  paint-order="stroke"   >
		<g transform="matrix(1 0 0 1 5.684342e-14 0)" id="text-logo-path-0"  >
<path style="stroke: none; stroke-width: 1; stroke-dasharray: none; stroke-linecap: butt; stroke-dashoffset: 0; stroke-linejoin: miter; stroke-miterlimit: 4; fill: rgb(255,255,255); fill-rule: nonzero; opacity: 1;"  paint-order="stroke"  transform=" translate(-187.39499999999998, 10.515)" d="M 0.54 0 L 8.46 -21 L 17.22 -21 L 26.52 0 L 15.18 0 L 12.03 -6.96 L 5.43 -6.96 L 2.73 0 L 0.54 0 Z M 6.09 -8.79 L 11.19 -8.79 L 8.46 -14.88 L 6.09 -8.79 Z M 28.74 0 L 28.74 -19.23 L 20.85 -19.23 L 20.85 -21 L 47.16 -21 L 47.16 -19.23 L 39.24 -19.23 L 39.24 0 L 28.74 0 Z M 42.15 0 L 50.07 -21 L 58.83 -21 L 68.13 0 L 56.79 0 L 53.64 -6.96 L 47.04 -6.96 L 44.34 0 L 42.15 0 Z M 47.7 -8.79 L 52.8 -8.79 L 50.07 -14.88 L 47.7 -8.79 Z M 69.3 0 L 69.3 -21 L 79.83 -21 L 79.83 0 L 69.3 0 Z M 86.04 0 L 79.83 -10.53 L 84.75 -21 L 95.22 -21 L 89.97 -10.53 L 96.63 0 L 86.04 0 Z M 108.51 0.15 Q 104.49 0.15 101.25 -1.08 Q 98.01 -2.31 96.13 -4.72 Q 94.26 -7.14 94.26 -10.53 L 94.26 -10.53 Q 94.26 -13.89 96.15 -16.29 Q 98.04 -18.69 101.27 -19.93 Q 104.49 -21.18 108.51 -21.18 L 108.51 -21.18 Q 112.5 -21.18 115.72 -19.93 Q 118.95 -18.69 120.82 -16.29 Q 122.7 -13.89 122.7 -10.53 L 122.7 -10.53 Q 122.7 -7.14 120.82 -4.72 Q 118.95 -2.31 115.72 -1.08 Q 112.5 0.15 108.51 0.15 L 108.51 0.15 Z M 108.51 -1.62 Q 109.77 -1.62 110.37 -2.76 L 110.37 -2.76 Q 110.88 -3.63 111.06 -5.85 L 111.06 -5.85 Q 111.15 -7.02 111.15 -10.53 L 111.15 -10.53 Q 111.15 -14.07 111 -15.54 L 111 -15.54 Q 110.91 -17.34 110.34 -18.27 L 110.34 -18.27 Q 109.74 -19.41 108.51 -19.41 L 108.51 -19.41 Q 107.25 -19.41 106.62 -18.27 L 106.62 -18.27 Q 106.11 -17.37 105.96 -15.54 L 105.96 -15.54 Q 105.84 -13.98 105.84 -10.53 L 105.84 -10.53 Q 105.84 -6.63 105.93 -5.85 L 105.93 -5.85 Q 106.05 -3.78 106.59 -2.76 L 106.59 -2.76 Q 107.22 -1.62 108.51 -1.62 L 108.51 -1.62 Z M 140.01 -13.47 Q 143.58 -12.51 145.35 -10.93 Q 147.12 -9.36 147.12 -6.84 L 147.12 -6.84 Q 147.12 -4.83 145.86 -3.24 Q 144.6 -1.65 142.16 -0.75 Q 139.71 0.15 136.23 0.15 L 136.23 0.15 Q 132.12 0.15 128.98 -0.91 Q 125.85 -1.98 124.08 -3.51 L 124.08 -3.51 L 125.07 -4.86 Q 126.63 -3.63 129 -2.76 Q 131.37 -1.89 134.1 -1.89 L 134.1 -1.89 Q 135.87 -1.89 136.78 -2.4 Q 137.7 -2.91 137.7 -3.84 L 137.7 -3.84 Q 137.7 -5.46 134.49 -6.36 L 134.49 -6.36 L 130.59 -7.5 Q 127.41 -8.46 125.69 -10.17 Q 123.96 -11.88 123.96 -14.22 L 123.96 -14.22 Q 123.96 -16.17 125.19 -17.76 Q 126.42 -19.35 128.78 -20.27 Q 131.13 -21.18 134.43 -21.18 L 134.43 -21.18 Q 137.58 -21.18 140.24 -20.46 Q 142.89 -19.74 144.57 -18.72 L 144.57 -18.72 L 143.58 -17.34 Q 142.17 -18.15 140.2 -18.72 Q 138.24 -19.29 136.08 -19.29 L 136.08 -19.29 Q 134.19 -19.29 133.19 -18.7 Q 132.18 -18.12 132.18 -17.1 L 132.18 -17.1 Q 132.18 -16.32 132.93 -15.73 Q 133.68 -15.15 135.78 -14.58 L 135.78 -14.58 L 140.01 -13.47 Z M 170.22 0 L 160.92 -21 L 170.64 -21 L 177.51 -5.52 L 183.27 -21 L 185.58 -21 L 177.66 0 L 170.22 0 Z M 186.72 0 L 186.72 -21 L 208.53 -21 L 208.53 -19.23 L 197.28 -19.23 L 197.28 -11.46 L 202.8 -11.46 L 202.8 -9.66 L 197.28 -9.66 L 197.28 -1.8 L 208.53 -1.8 L 208.53 0 L 186.72 0 Z M 210.24 0 L 210.24 -21 L 220.77 -21 L 220.77 0 L 210.24 0 Z M 226.98 0 L 220.77 -10.53 L 225.69 -21 L 236.16 -21 L 230.91 -10.53 L 237.57 0 L 226.98 0 Z M 245.64 0 L 245.64 -19.23 L 237.75 -19.23 L 237.75 -21 L 264.06 -21 L 264.06 -19.23 L 256.14 -19.23 L 256.14 0 L 245.64 0 Z M 275.31 0.15 Q 271.29 0.15 268.05 -1.08 Q 264.81 -2.31 262.94 -4.72 Q 261.06 -7.14 261.06 -10.53 L 261.06 -10.53 Q 261.06 -13.89 262.95 -16.29 Q 264.84 -18.69 268.06 -19.93 Q 271.29 -21.18 275.31 -21.18 L 275.31 -21.18 Q 279.3 -21.18 282.52 -19.93 Q 285.75 -18.69 287.63 -16.29 Q 289.5 -13.89 289.5 -10.53 L 289.5 -10.53 Q 289.5 -7.14 287.63 -4.72 Q 285.75 -2.31 282.52 -1.08 Q 279.3 0.15 275.31 0.15 L 275.31 0.15 Z M 275.31 -1.62 Q 276.57 -1.62 277.17 -2.76 L 277.17 -2.76 Q 277.68 -3.63 277.86 -5.85 L 277.86 -5.85 Q 277.95 -7.02 277.95 -10.53 L 277.95 -10.53 Q 277.95 -14.07 277.8 -15.54 L 277.8 -15.54 Q 277.71 -17.34 277.14 -18.27 L 277.14 -18.27 Q 276.54 -19.41 275.31 -19.41 L 275.31 -19.41 Q 274.05 -19.41 273.42 -18.27 L 273.42 -18.27 Q 272.91 -17.37 272.76 -15.54 L 272.76 -15.54 Q 272.64 -13.98 272.64 -10.53 L 272.64 -10.53 Q 272.64 -6.63 272.73 -5.85 L 272.73 -5.85 Q 272.85 -3.78 273.39 -2.76 L 273.39 -2.76 Q 274.02 -1.62 275.31 -1.62 L 275.31 -1.62 Z M 290.97 0 L 290.97 -21 L 311.04 -21 Q 312.51 -21 313.75 -20.27 Q 315 -19.53 315.74 -18.29 Q 316.47 -17.04 316.47 -15.57 L 316.47 -15.57 Q 316.47 -13.62 315.27 -12.03 Q 314.07 -10.44 312.24 -9.99 L 312.24 -9.99 Q 313.86 -9.54 314.89 -8.28 Q 315.93 -7.02 315.93 -5.43 L 315.93 -5.43 L 315.93 0 L 305.88 0 L 305.88 -6.51 Q 305.88 -7.47 305.52 -8.01 L 305.52 -8.01 Q 305.1 -8.64 304.56 -8.94 L 304.56 -8.94 Q 303.96 -9.27 303.21 -9.42 L 303.21 -9.42 Q 302.43 -9.57 301.74 -9.6 L 301.74 -9.6 L 300.93 -9.63 L 300.93 0 L 290.97 0 Z M 300.93 -11.34 L 301.98 -11.37 Q 303.06 -11.37 303.98 -11.89 Q 304.89 -12.42 305.42 -13.33 Q 305.94 -14.25 305.94 -15.3 L 305.94 -15.3 Q 305.94 -16.38 305.42 -17.29 Q 304.89 -18.21 303.98 -18.75 Q 303.06 -19.29 301.98 -19.29 L 301.98 -19.29 L 300.93 -19.29 L 300.93 -11.34 Z M 317.97 0 L 317.97 -21 L 327.75 -21 L 327.75 0 L 317.97 0 Z M 339.54 0.15 Q 334.11 0.15 331.79 -1.44 Q 329.46 -3.03 329.46 -6.3 L 329.46 -6.3 L 329.46 -21 L 340.92 -21 L 340.92 -6.3 Q 340.92 -4.17 341.87 -3.19 Q 342.81 -2.22 344.37 -2.22 L 344.37 -2.22 Q 347.85 -2.22 347.85 -6.3 L 347.85 -6.3 L 347.85 -21 L 349.62 -21 L 349.62 -6.3 Q 349.62 -3.75 348.54 -2.35 Q 347.46 -0.96 345.3 -0.4 Q 343.14 0.15 339.54 0.15 L 339.54 0.15 Z M 367.14 -13.47 Q 370.71 -12.51 372.48 -10.93 Q 374.25 -9.36 374.25 -6.84 L 374.25 -6.84 Q 374.25 -4.83 372.99 -3.24 Q 371.73 -1.65 369.28 -0.75 Q 366.84 0.15 363.36 0.15 L 363.36 0.15 Q 359.25 0.15 356.11 -0.91 Q 352.98 -1.98 351.21 -3.51 L 351.21 -3.51 L 352.2 -4.86 Q 353.76 -3.63 356.13 -2.76 Q 358.5 -1.89 361.23 -1.89 L 361.23 -1.89 Q 363 -1.89 363.91 -2.4 Q 364.83 -2.91 364.83 -3.84 L 364.83 -3.84 Q 364.83 -5.46 361.62 -6.36 L 361.62 -6.36 L 357.72 -7.5 Q 354.54 -8.46 352.81 -10.17 Q 351.09 -11.88 351.09 -14.22 L 351.09 -14.22 Q 351.09 -16.17 352.32 -17.76 Q 353.55 -19.35 355.9 -20.27 Q 358.26 -21.18 361.56 -21.18 L 361.56 -21.18 Q 364.71 -21.18 367.37 -20.46 Q 370.02 -19.74 371.7 -18.72 L 371.7 -18.72 L 370.71 -17.34 Q 369.3 -18.15 367.33 -18.72 Q 365.37 -19.29 363.21 -19.29 L 363.21 -19.29 Q 361.32 -19.29 360.31 -18.7 Q 359.31 -18.12 359.31 -17.1 L 359.31 -17.1 Q 359.31 -16.32 360.06 -15.73 Q 360.81 -15.15 362.91 -14.58 L 362.91 -14.58 L 367.14 -13.47 Z" stroke-linecap="round" />
</g>
</g>
</g>
<g transform="matrix(2.249173130067904 0 0 2.249173130067904 640 423.74368469019373)" id="logo-logo"  >
<g style=""  paint-order="stroke"   >
		<g transform="matrix(2.168 0 0 -2.168 -71.26327373501545 -0.0008644999999773972)"  >
<path style="stroke: none; stroke-width: 1; stroke-dasharray: none; stroke-linecap: butt; stroke-dashoffset: 0; stroke-linejoin: miter; stroke-miterlimit: 4; fill: rgb(255,255,255); fill-rule: nonzero; opacity: 1;"  paint-order="stroke"  transform=" translate(42.65846751304501, -31.361000000000004)" d="M 0 0 L -39.338 66.001 C -41.168 69.07300000000001 -44.162 69.07300000000001 -45.991 66.001 L -85.318 0 C -87.14699999999999 -3.071 -85.72 -5.583 -82.146 -5.583 L -43.014 -5.583 C -39.439 -5.583 -36.515 -2.834 -36.515 0.5270000000000001 C -36.515 3.886 -39.439 6.688 -43.014 6.705 L -59.67400000000001 6.705 C -63.24900000000001 6.722 -64.677 9.248000000000001 -62.84700000000001 12.318999999999999 L -45.99000000000001 40.611000000000004 C -44.16100000000001 43.68300000000001 -41.16600000000001 43.68300000000001 -39.33600000000001 40.611000000000004 L -13.27 -3.042 C -12.748999999999999 -3.936 -11.824 -5.583 -10.001 -5.583 L -5.303999999999999 -5.583 L -3.1719999999999993 -5.583 C 0.403 -5.583 1.831 -3.071 0 0" stroke-linecap="round" />
</g>
		<g transform="matrix(2.168 0 0 -2.168 71.26272626498456 0.0011355000000321525)"  >
<path style="stroke: none; stroke-width: 1; stroke-dasharray: none; stroke-linecap: butt; stroke-dashoffset: 0; stroke-linejoin: miter; stroke-miterlimit: 4; fill: rgb(255,255,255); fill-rule: nonzero; opacity: 1;"  paint-order="stroke"  transform=" translate(-42.658720036121984, 31.360875)" d="M 0 0 L 39.338 -66 C 41.168 -69.073 44.162 -69.073 45.992000000000004 -66 L 85.317 0 C 87.14899999999999 3.072 85.72 5.583 82.145 5.583 L 43.014 5.583 C 39.439 5.583 36.515 2.834 36.515 -0.5270000000000001 C 36.515 -3.8850000000000002 39.439 -6.688 43.014 -6.706 L 59.67400000000001 -6.706 C 63.24900000000001 -6.721 64.67800000000001 -9.248000000000001 62.84700000000001 -12.319 L 45.99 -40.61 C 44.161 -43.682 41.166000000000004 -43.682 39.336 -40.61 L 13.27 3.042 C 12.749 3.937 11.824 5.583 10.001 5.583 L 5.305 5.583 L 3.172 5.583 C -0.403 5.583 -1.831 3.072 0 0" stroke-linecap="round" />
</g>
</g>
</g>
</svg>